<?xml version="1.0" encoding="UTF-8" ?>
<!DOCTYPE svg PUBLIC "-//W3C//DTD SVG 1.1//EN" "http://www.w3.org/Graphics/SVG/1.1/DTD/svg11.dtd">
<svg width="158pt" height="162pt" viewBox="0 0 158 162" version="1.1" xmlns="http://www.w3.org/2000/svg">
<g id="#ffffffff">
</g>
<g id="#fe5153ff">
<path fill="#fe5153" opacity="1.00" d=" M 78.76 7.85 C 77.85 4.74 82.63 3.27 84.16 5.82 C 85.35 7.04 84.39 8.67 84.19 10.07 C 83.58 10.26 82.37 10.65 81.76 10.84 C 80.47 13.87 79.18 16.91 78.25 20.07 C 83.48 20.81 88.40 23.34 91.44 27.75 C 102.24 27.42 113.08 28.09 123.78 29.60 C 130.60 30.52 137.29 32.99 142.77 37.20 C 145.44 39.27 147.89 42.50 146.91 46.08 C 145.67 53.43 145.25 60.89 143.85 68.21 C 141.77 82.80 140.38 97.49 138.00 112.03 C 137.76 119.47 135.71 127.05 130.88 132.86 C 127.37 137.23 122.26 139.87 117.09 141.76 C 119.18 146.50 120.50 151.57 120.69 156.76 C 119.30 156.47 117.74 156.41 116.67 155.35 C 112.73 152.02 109.87 147.65 106.96 143.44 C 82.75 146.71 58.00 146.55 33.91 142.36 C 30.68 147.63 27.41 153.34 21.91 156.53 C 21.41 156.52 20.40 156.51 19.89 156.50 C 19.87 150.21 21.86 144.05 25.03 138.67 C 19.82 134.62 15.10 129.38 13.47 122.82 C 11.41 110.34 10.59 97.69 10.04 85.06 C 9.42 78.03 8.30 71.02 8.32 63.95 C 8.90 52.41 17.11 41.50 28.26 38.20 C 36.16 35.87 44.25 34.30 52.26 32.44 C 53.33 27.85 56.84 24.64 60.80 22.43 C 59.04 20.22 57.41 17.91 55.77 15.61 C 53.57 15.01 51.60 13.85 50.17 12.04 C 51.65 10.74 53.40 7.44 55.67 9.23 C 57.59 10.05 57.44 12.27 57.20 13.98 C 58.94 16.52 60.61 19.14 62.68 21.44 C 67.15 20.72 71.62 19.94 76.16 19.79 C 77.37 15.89 79.38 12.07 78.76 7.85 M 66.65 40.05 C 55.97 41.39 45.40 43.53 34.98 46.22 C 31.57 47.10 28.15 48.23 25.23 50.25 C 20.21 53.61 17.12 59.25 15.64 64.98 C 14.61 77.35 17.73 89.55 17.96 101.89 C 18.20 107.03 17.98 112.32 19.95 117.18 C 22.27 125.15 29.68 130.89 37.69 132.31 C 56.61 135.56 76.17 135.62 95.00 131.75 C 102.96 130.06 109.70 123.77 111.91 115.94 C 112.84 112.08 113.09 108.09 113.68 104.17 C 115.45 89.42 117.90 74.77 119.48 60.00 C 119.84 55.28 121.77 50.13 119.28 45.68 C 117.81 42.74 114.73 41.06 111.59 40.54 C 96.75 38.00 81.56 38.17 66.65 40.05 M 124.90 56.37 C 124.88 56.85 124.86 57.79 124.84 58.26 C 129.89 58.36 134.94 58.44 139.98 58.32 C 139.99 57.82 140.00 56.83 140.00 56.34 C 134.97 56.36 129.93 56.33 124.90 56.37 M 124.22 60.19 C 124.54 60.48 125.17 61.06 125.49 61.35 C 130.28 61.93 135.15 61.39 139.97 61.66 C 139.98 61.23 140.00 60.38 140.00 59.95 C 134.74 60.09 129.47 59.83 124.22 60.19 M 124.19 64.80 C 129.45 65.23 134.73 65.02 140.00 64.99 C 140.00 64.55 140.00 63.67 140.00 63.24 C 135.68 63.44 131.35 63.34 127.04 63.42 C 125.84 63.34 124.89 63.80 124.19 64.80 M 124.15 66.95 C 124.51 67.30 125.23 68.01 125.58 68.36 C 129.69 68.89 133.89 68.57 138.03 68.56 C 139.20 68.60 140.06 68.06 140.62 66.95 C 135.13 66.71 129.63 66.71 124.15 66.95 M 124.86 70.15 C 124.86 70.64 124.86 71.62 124.86 72.11 C 129.86 72.16 134.87 72.11 139.88 72.08 C 139.91 71.60 139.95 70.66 139.97 70.19 C 134.94 70.17 129.90 70.22 124.86 70.15 M 123.20 96.88 C 124.03 98.41 124.88 99.93 125.72 101.46 C 127.68 101.52 129.98 102.12 131.54 100.53 C 134.37 98.06 132.78 92.51 128.79 92.37 C 125.76 91.68 124.45 94.80 123.20 96.88 M 122.34 108.49 C 121.68 109.66 121.00 110.82 120.47 112.06 C 120.66 113.67 121.69 115.00 122.40 116.42 C 123.64 116.73 124.89 117.04 126.14 117.36 C 127.41 116.50 128.67 115.63 129.93 114.75 C 129.74 113.07 130.13 111.20 129.32 109.66 C 128.33 108.80 127.18 108.13 126.09 107.41 C 124.84 107.77 123.59 108.13 122.34 108.49 Z" />
</g>
</svg>
